# xmcd
#
# Track frame offsets:
#	150
#	28160
#	40302
#	51914
#	66056
#	78973
#	91608
#	105955
#	118027
#	130112
#	142364
#	153354
#	166793
#	181834
#	195726
#	206597
#	216099
#	227902
#	243886
#	257055
#	272581
#	287941
#	299708
#	312669
#	325355
#
# Disc length: 4433
#
# Revision: 3
# Processed by: cddbd v1.5.1PL0 Copyright (c) Steve Scherf et al.
# Submitted via: CDValet v3.31 - Copyright (c) 1997 Greg Leichner
# Normalized: r2:DSETVAR1
#
DISCID=76114f19
DTITLE=Various Artist - Blue Light (Chicago Dusties Vol. 3)
DYEAR=1900
DGENRE=
TTITLE0=Sharon Ridley - Stay A While With Me (Long Version)
TTITLE1=Esquires - You Got The Power
TTITLE2=Dusty Springfield - Silly, Silly, fool
TTITLE3=Chuck Berry - Havana Moon
TTITLE4=Barbara Mercer - Doing Things Together With You
TTITLE5=Temptations - Two Sides Of Love
TTITLE6=Freddie Scott - Hey Girl
TTITLE7=Linda Jones - Hypnotized
TTITLE8=Trends - Check My Tears
TTITLE9=Emotions - Somebody New
TTITLE10=Dianne Cunningham - Someday Baby
TTITLE11=Jan Bradley - It's Just Your Way
TTITLE12=Center Stage - Are You There?
TTITLE13=Five Wagers - Come And Ask Me
TTITLE14=Beverly Shaffer - Where Will You Be Boy?
TTITLE15=Isley Brothers - Your Old Lady
TTITLE16=O'Jays - Lonely Drifter
TTITLE17=Dionne Warwick - Any Old Time Of The Day
TTITLE18=Patti Austin - Most Unusual Boy
TTITLE19=Virgil Henry - I'll Be True
TTITLE20=Escorts - Ooh, Baby Baby
TTITLE21=Minnie Ripperton - Only When I'm Dreaming
TTITLE22=Nancy Wilson - Face It Girl, It's Over
TTITLE23=Specials - Fool For Your Love
TTITLE24=Joyce Davis - Stop Giving Your Man Away
EXTD=
EXTT0=
EXTT1=
EXTT2=
EXTT3=
EXTT4=
EXTT5=
EXTT6=
EXTT7=
EXTT8=
EXTT9=
EXTT10=
EXTT11=
EXTT12=
EXTT13=
EXTT14=
EXTT15=
EXTT16=
EXTT17=
EXTT18=
EXTT19=
EXTT20=
EXTT21=
EXTT22=
EXTT23=
EXTT24=
PLAYORDER=
